<svg width="960" height="960" viewBox="0 0 960 960" fill="none" xmlns="http://www.w3.org/2000/svg">
  <rect width="960" height="960" rx="56" fill="#0E0D0B"/>
  <circle cx="224" cy="212" r="146" fill="#829154" fill-opacity="0.26"/>
  <ellipse cx="480" cy="544" rx="298" ry="206" fill="#EFE2C8"/>
  <ellipse cx="480" cy="520" rx="246" ry="132" fill="#D8C0A0"/>
  <ellipse cx="480" cy="520" rx="212" ry="104" fill="url(#broth)"/>
  <path d="M306 500C370 444 432 438 494 452C556 466 614 462 674 424" stroke="#F5D67B" stroke-width="16" stroke-linecap="round"/>
  <path d="M286 544C354 488 420 482 486 498C548 514 616 510 704 456" stroke="#F5D67B" stroke-width="16" stroke-linecap="round"/>
  <path d="M330 578C404 526 472 518 538 530C594 540 654 536 716 498" stroke="#F5D67B" stroke-width="16" stroke-linecap="round"/>
  <rect x="322" y="470" width="44" height="44" rx="8" fill="#F3E5C9"/>
  <rect x="376" y="516" width="44" height="44" rx="8" fill="#F3E5C9"/>
  <rect x="636" y="478" width="54" height="18" rx="9" fill="#879159"/>
  <rect x="606" y="516" width="58" height="18" rx="9" fill="#879159"/>
  <path d="M522 446L566 544" stroke="#2F6D43" stroke-width="18" stroke-linecap="round"/>
  <path d="M564 446L608 542" stroke="#2A5F3B" stroke-width="18" stroke-linecap="round"/>
  <circle cx="488" cy="478" r="18" fill="#D44B34"/>
  <circle cx="524" cy="458" r="14" fill="#D44B34"/>
  <path d="M236 652C324 704 396 724 480 724C564 724 636 704 724 652" stroke="#EDE0C6" stroke-width="28" stroke-linecap="round"/>
  <path d="M266 722C346 760 416 778 480 778C544 778 614 760 694 722" stroke="#3E2A22" stroke-width="18" stroke-linecap="round"/>
  <path d="M358 214C340 172 364 142 402 138C452 132 488 168 482 214C476 266 432 294 420 338" stroke="#EFE2C8" stroke-width="14" stroke-linecap="round" opacity="0.58"/>
  <path d="M486 194C472 158 496 130 534 126C584 120 620 156 616 198C610 248 568 276 556 320" stroke="#EFE2C8" stroke-width="12" stroke-linecap="round" opacity="0.46"/>
  <defs>
    <linearGradient id="broth" x1="268" y1="520" x2="692" y2="520" gradientUnits="userSpaceOnUse">
      <stop stop-color="#9A7952"/>
      <stop offset="0.5" stop-color="#B99265"/>
      <stop offset="1" stop-color="#7B5B39"/>
    </linearGradient>
  </defs>
</svg>
