<svg width="960" height="960" viewBox="0 0 960 960" fill="none" xmlns="http://www.w3.org/2000/svg">
  <rect width="960" height="960" rx="56" fill="#110E0C"/>
  <circle cx="712" cy="208" r="154" fill="#A83224" fill-opacity="0.34"/>
  <ellipse cx="480" cy="544" rx="298" ry="206" fill="#EFE2C8"/>
  <ellipse cx="480" cy="520" rx="246" ry="132" fill="#D8C0A0"/>
  <ellipse cx="480" cy="520" rx="212" ry="104" fill="url(#broth)"/>
  <path d="M314 500C378 442 440 432 500 450C558 468 618 466 680 422" stroke="#F2D46A" stroke-width="16" stroke-linecap="round"/>
  <path d="M292 540C356 482 420 474 486 490C548 506 614 504 706 448" stroke="#F2D46A" stroke-width="16" stroke-linecap="round"/>
  <path d="M320 574C394 522 462 512 530 526C588 538 650 534 716 490" stroke="#F2D46A" stroke-width="16" stroke-linecap="round"/>
  <ellipse cx="346" cy="530" rx="62" ry="40" fill="#8A472F"/>
  <ellipse cx="602" cy="514" rx="70" ry="44" fill="#914F35"/>
  <circle cx="498" cy="478" r="42" fill="#F8F3EA"/>
  <circle cx="498" cy="478" r="18" fill="#E09A37"/>
  <circle cx="648" cy="560" r="22" fill="#1E5B37"/>
  <circle cx="676" cy="520" r="18" fill="#2A7547"/>
  <circle cx="704" cy="562" r="16" fill="#2A7547"/>
  <path d="M236 652C324 704 396 724 480 724C564 724 636 704 724 652" stroke="#EDE0C6" stroke-width="28" stroke-linecap="round"/>
  <path d="M266 722C346 760 416 778 480 778C544 778 614 760 694 722" stroke="#3E2A22" stroke-width="18" stroke-linecap="round"/>
  <path d="M312 236C294 190 320 160 358 154C410 146 444 190 438 236C430 294 378 318 364 366" stroke="#EFE2C8" stroke-width="16" stroke-linecap="round" opacity="0.62"/>
  <path d="M438 198C426 164 448 136 484 132C536 126 572 164 566 208C558 256 518 282 506 324" stroke="#EFE2C8" stroke-width="14" stroke-linecap="round" opacity="0.54"/>
  <defs>
    <linearGradient id="broth" x1="268" y1="520" x2="692" y2="520" gradientUnits="userSpaceOnUse">
      <stop stop-color="#C98848"/>
      <stop offset="0.5" stop-color="#E3A55C"/>
      <stop offset="1" stop-color="#BC7139"/>
    </linearGradient>
  </defs>
</svg>
