<svg width="960" height="960" viewBox="0 0 960 960" fill="none" xmlns="http://www.w3.org/2000/svg">
  <rect width="960" height="960" rx="56" fill="#120E0D"/>
  <circle cx="760" cy="210" r="150" fill="#D85F2D" fill-opacity="0.24"/>
  <ellipse cx="480" cy="544" rx="298" ry="206" fill="#EFE2C8"/>
  <ellipse cx="480" cy="520" rx="246" ry="132" fill="#D8C0A0"/>
  <ellipse cx="480" cy="520" rx="212" ry="104" fill="url(#broth)"/>
  <path d="M314 500C376 444 438 438 500 454C560 468 620 466 680 426" stroke="#F3D46D" stroke-width="16" stroke-linecap="round"/>
  <path d="M292 546C358 486 422 480 488 498C548 514 616 512 704 458" stroke="#F3D46D" stroke-width="16" stroke-linecap="round"/>
  <path d="M326 582C400 528 468 520 534 534C590 546 652 542 716 500" stroke="#F3D46D" stroke-width="16" stroke-linecap="round"/>
  <circle cx="338" cy="530" r="34" fill="#F0D36A"/>
  <circle cx="390" cy="558" r="26" fill="#F0D36A"/>
  <circle cx="658" cy="522" r="36" fill="#D44B34"/>
  <circle cx="704" cy="558" r="22" fill="#D44B34"/>
  <circle cx="506" cy="474" r="42" fill="#FAF5EE"/>
  <circle cx="506" cy="474" r="18" fill="#E09A37"/>
  <rect x="594" y="448" width="20" height="102" rx="10" fill="#4B2118"/>
  <rect x="626" y="442" width="20" height="110" rx="10" fill="#4B2118"/>
  <path d="M236 652C324 704 396 724 480 724C564 724 636 704 724 652" stroke="#EDE0C6" stroke-width="28" stroke-linecap="round"/>
  <path d="M266 722C346 760 416 778 480 778C544 778 614 760 694 722" stroke="#3E2A22" stroke-width="18" stroke-linecap="round"/>
  <path d="M350 226C332 184 356 152 394 146C444 138 478 176 472 222C466 272 424 298 412 340" stroke="#EFE2C8" stroke-width="14" stroke-linecap="round" opacity="0.56"/>
  <path d="M476 198C464 162 488 134 526 130C576 124 612 162 608 204C602 252 562 280 550 324" stroke="#EFE2C8" stroke-width="12" stroke-linecap="round" opacity="0.48"/>
  <defs>
    <linearGradient id="broth" x1="268" y1="520" x2="692" y2="520" gradientUnits="userSpaceOnUse">
      <stop stop-color="#A54B27"/>
      <stop offset="0.5" stop-color="#CF6831"/>
      <stop offset="1" stop-color="#7D261A"/>
    </linearGradient>
  </defs>
</svg>
