<svg width="960" height="960" viewBox="0 0 960 960" fill="none" xmlns="http://www.w3.org/2000/svg">
  <rect width="960" height="960" rx="56" fill="#110E0C"/>
  <circle cx="728" cy="204" r="150" fill="#D44B34" fill-opacity="0.2"/>
  <rect x="356" y="186" width="248" height="472" rx="72" fill="#E8D9BE"/>
  <rect x="388" y="224" width="184" height="396" rx="48" fill="url(#drink)"/>
  <path d="M420 162L518 98" stroke="#E8D9BE" stroke-width="18" stroke-linecap="round"/>
  <path d="M464 140L562 76" stroke="#D44B34" stroke-width="10" stroke-linecap="round"/>
  <circle cx="480" cy="308" r="60" fill="#F4E2A4" fill-opacity="0.3"/>
  <circle cx="480" cy="470" r="16" fill="#F4E2A4"/>
  <circle cx="438" cy="520" r="12" fill="#F4E2A4"/>
  <circle cx="514" cy="550" r="10" fill="#F4E2A4"/>
  <circle cx="526" cy="386" r="12" fill="#F4E2A4"/>
  <circle cx="450" cy="410" r="10" fill="#F4E2A4"/>
  <circle cx="646" cy="652" r="84" fill="#F0C85A"/>
  <circle cx="646" cy="652" r="58" fill="#E8B33D"/>
  <path d="M614 652H678" stroke="#FFF4D1" stroke-width="8" stroke-linecap="round"/>
  <path d="M646 620V684" stroke="#FFF4D1" stroke-width="8" stroke-linecap="round"/>
  <path d="M310 218C292 176 318 146 356 142C408 136 444 174 438 220C432 272 386 300 372 342" stroke="#EFE2C8" stroke-width="14" stroke-linecap="round" opacity="0.52"/>
  <path d="M440 196C426 160 450 132 488 128C538 122 574 160 568 202C562 252 520 280 508 324" stroke="#EFE2C8" stroke-width="12" stroke-linecap="round" opacity="0.4"/>
  <defs>
    <linearGradient id="drink" x1="480" y1="224" x2="480" y2="620" gradientUnits="userSpaceOnUse">
      <stop stop-color="#F1D96D"/>
      <stop offset="0.55" stop-color="#E5B53D"/>
      <stop offset="1" stop-color="#D28D24"/>
    </linearGradient>
  </defs>
</svg>
