<svg width="960" height="960" viewBox="0 0 960 960" fill="none" xmlns="http://www.w3.org/2000/svg">
  <rect width="960" height="960" rx="56" fill="#100D0B"/>
  <circle cx="718" cy="210" r="150" fill="#D44B34" fill-opacity="0.24"/>
  <rect x="146" y="232" width="668" height="460" rx="36" fill="#1A1411" stroke="#584137" stroke-width="8"/>
  <ellipse cx="372" cy="480" rx="172" ry="118" fill="#EFE2C8"/>
  <ellipse cx="372" cy="466" rx="138" ry="74" fill="#D8C0A0"/>
  <ellipse cx="372" cy="466" rx="118" ry="58" fill="url(#broth)"/>
  <path d="M282 450C328 414 372 408 416 420C456 432 494 428 530 404" stroke="#F3D46D" stroke-width="12" stroke-linecap="round"/>
  <path d="M270 480C320 442 368 438 418 450C460 460 504 458 552 426" stroke="#F3D46D" stroke-width="12" stroke-linecap="round"/>
  <circle cx="410" cy="438" r="24" fill="#FAF5EE"/>
  <circle cx="410" cy="438" r="10" fill="#E09A37"/>
  <rect x="570" y="366" width="176" height="126" rx="24" fill="#E8D9BE"/>
  <rect x="594" y="392" width="128" height="74" rx="18" fill="#C89A66"/>
  <path d="M590 618H744" stroke="#E8D9BE" stroke-width="14" stroke-linecap="round"/>
  <path d="M586 652H726" stroke="#D44B34" stroke-width="14" stroke-linecap="round"/>
  <path d="M230 744C310 780 382 798 456 798C530 798 602 780 682 744" stroke="#EDE0C6" stroke-width="24" stroke-linecap="round"/>
  <path d="M266 206C248 164 272 136 308 132C356 126 390 164 386 208C380 256 340 282 328 324" stroke="#EFE2C8" stroke-width="12" stroke-linecap="round" opacity="0.52"/>
  <path d="M396 180C384 148 406 122 442 120C488 116 522 148 518 190C514 236 478 262 468 300" stroke="#EFE2C8" stroke-width="10" stroke-linecap="round" opacity="0.4"/>
  <defs>
    <linearGradient id="broth" x1="254" y1="466" x2="490" y2="466" gradientUnits="userSpaceOnUse">
      <stop stop-color="#A54B27"/>
      <stop offset="0.5" stop-color="#CF6831"/>
      <stop offset="1" stop-color="#7D261A"/>
    </linearGradient>
  </defs>
</svg>
