<svg width="960" height="960" viewBox="0 0 960 960" fill="none" xmlns="http://www.w3.org/2000/svg">
  <rect width="960" height="960" rx="56" fill="#110E0C"/>
  <circle cx="242" cy="188" r="146" fill="#D44B34" fill-opacity="0.22"/>
  <ellipse cx="480" cy="562" rx="288" ry="174" fill="#2A221D"/>
  <ellipse cx="480" cy="562" rx="240" ry="136" fill="#1A1411"/>
  <path d="M270 520C304 456 360 430 420 446C474 460 508 516 506 562L270 520Z" fill="#E8D6B9"/>
  <path d="M446 486C482 426 544 408 604 426C656 442 694 494 694 548L446 486Z" fill="#E8D6B9"/>
  <path d="M290 554C322 492 376 468 432 484C478 498 510 544 510 592L290 554Z" fill="#C98B4C"/>
  <path d="M470 518C504 458 560 440 618 456C666 470 700 520 700 566L470 518Z" fill="#C98B4C"/>
  <path d="M336 526C370 550 406 564 446 568" stroke="#8A5A2E" stroke-width="10" stroke-linecap="round"/>
  <path d="M514 490C550 514 592 528 638 534" stroke="#8A5A2E" stroke-width="10" stroke-linecap="round"/>
  <circle cx="694" cy="634" r="72" fill="#2E1A14"/>
  <circle cx="694" cy="634" r="54" fill="#3F241B"/>
  <circle cx="694" cy="634" r="6" fill="#D44B34"/>
  <circle cx="714" cy="618" r="6" fill="#E6D38C"/>
  <circle cx="670" cy="614" r="6" fill="#2E6F46"/>
  <circle cx="670" cy="650" r="6" fill="#2E6F46"/>
  <path d="M310 214C292 172 318 142 356 138C408 132 444 170 438 216C432 268 386 296 372 338" stroke="#EFE2C8" stroke-width="14" stroke-linecap="round" opacity="0.54"/>
  <path d="M440 192C426 156 450 128 488 124C538 118 574 156 568 198C562 248 520 276 508 320" stroke="#EFE2C8" stroke-width="12" stroke-linecap="round" opacity="0.42"/>
</svg>
